<?xml version="1.0" encoding="UTF-8" standalone="no"?>
<!-- Created with Inkscape (http://www.inkscape.org/) -->

<svg
   width="81.195053"
   height="61.653877"
   viewBox="0 0 21.482847 16.312589"
   version="1.1"
   id="svg1"
   xml:space="preserve"
   inkscape:version="1.4.3 (0d15f75042, 2025-12-25)"
   sodipodi:docname="diagnostic.svg"
   xmlns:inkscape="http://www.inkscape.org/namespaces/inkscape"
   xmlns:sodipodi="http://sodipodi.sourceforge.net/DTD/sodipodi-0.dtd"
   xmlns:xlink="http://www.w3.org/1999/xlink"
   xmlns="http://www.w3.org/2000/svg"
   xmlns:svg="http://www.w3.org/2000/svg"><sodipodi:namedview
     id="namedview1"
     pagecolor="#ffffff"
     bordercolor="#000000"
     borderopacity="0.25"
     inkscape:showpageshadow="2"
     inkscape:pageopacity="0.0"
     inkscape:pagecheckerboard="0"
     inkscape:deskcolor="#d1d1d1"
     inkscape:document-units="mm"
     inkscape:zoom="4.4831872"
     inkscape:cx="-5.5763899"
     inkscape:cy="55.540844"
     inkscape:window-width="2133"
     inkscape:window-height="1127"
     inkscape:window-x="0"
     inkscape:window-y="0"
     inkscape:window-maximized="1"
     inkscape:current-layer="battery_temperature_nominal" /><defs
     id="defs1"><linearGradient
       id="linearGradient33"
       inkscape:collect="always"><stop
         style="stop-color:#acd2ff;stop-opacity:1;"
         offset="0"
         id="stop33" /><stop
         style="stop-color:#002653;stop-opacity:1;"
         offset="1"
         id="stop34" /></linearGradient><linearGradient
       id="linearGradient31"
       inkscape:collect="always"><stop
         style="stop-color:#cecece;stop-opacity:1;"
         offset="0"
         id="stop31" /><stop
         style="stop-color:#e7e7e7;stop-opacity:0;"
         offset="1"
         id="stop32" /></linearGradient><linearGradient
       inkscape:collect="always"
       xlink:href="#linearGradient31"
       id="linearGradient32"
       x1="94.728294"
       y1="85.595932"
       x2="94.728294"
       y2="84.487564"
       gradientUnits="userSpaceOnUse"
       gradientTransform="translate(0.48493741,6.9969551)" /><linearGradient
       inkscape:collect="always"
       xlink:href="#linearGradient33"
       id="linearGradient34"
       x1="85.574074"
       y1="90.62793"
       x2="85.574074"
       y2="107.04389"
       gradientUnits="userSpaceOnUse"
       gradientTransform="translate(1.4143949,0.82126819)" /></defs><g
     inkscape:label="Layer 1"
     inkscape:groupmode="layer"
     id="layer1"
     transform="translate(-86.29082,-91.563199)"><path
       id="path11"
       style="fill:#cecece;fill-opacity:1;stroke:#000000;stroke-width:0.1;stroke-dasharray:none;stroke-opacity:1"
       d="m 89.921336,107.01598 v 0.42995 c 8.7e-5,0.20973 0.170088,0.37973 0.379822,0.37982 0.0034,5e-5 0.0069,5e-5 0.01034,0 h 9.452653 c 0.209734,-9e-5 0.379739,-0.17009 0.379819,-0.37982 -9e-5,-0.0123 -7.8e-4,-0.0245 -0.002,-0.0367 l 4e-5,-0.39326 z"
       sodipodi:nodetypes="ccccccccc" /><path
       style="fill:#cecece;fill-opacity:1;stroke:none;stroke-width:0.0499999;stroke-dasharray:none;stroke-opacity:1"
       d="m 89.921332,92.59289 h 10.220598 l -2e-5,14.42308 -10.220578,1e-5 z"
       id="path27"
       sodipodi:nodetypes="ccccc" /><path
       style="fill:url(#linearGradient32);fill-opacity:1;stroke:none;stroke-width:0.0499999;stroke-dasharray:none;stroke-opacity:1"
       d="m 100.14193,92.59289 1e-5,-0.979691 H 89.921334 v 0.979691 z"
       id="path28" /><path
       style="fill:none;fill-opacity:1;stroke:#000000;stroke-width:0.1;stroke-dasharray:none;stroke-opacity:1"
       d="m 89.921334,107.01598 10e-7,-15.402781 H 100.14194 V 107.0311"
       id="path12"
       sodipodi:nodetypes="cccc" /><path
       id="path13"
       style="fill:#e7e7e7;fill-opacity:1;stroke:#000000;stroke-width:0.1;stroke-dasharray:none;stroke-opacity:1"
       d="m 94.001707,92.64289 a 0.49328497,0.49328497 0 0 0 -0.492993,0.492993 0.49328497,0.49328497 0 0 0 0.492993,0.49351 0.49328497,0.49328497 0 0 0 0.001,0 h 2.081527 0.001 a 0.49328497,0.49328497 0 0 0 0.492993,-0.49351 0.49328497,0.49328497 0 0 0 -0.492993,-0.492993 z" /><circle
       style="fill:none;stroke:#000000;stroke-width:0.05;stroke-dasharray:none;stroke-opacity:1"
       id="path14"
       cx="96.052483"
       cy="93.136131"
       r="0.12132353" /><circle
       style="fill:none;stroke:#000000;stroke-width:0.05;stroke-dasharray:none;stroke-opacity:1"
       id="path14-2"
       cx="94.006958"
       cy="93.136131"
       r="0.12132353" /><path
       style="fill:none;stroke:#000000;stroke-width:0.0499999;stroke-dasharray:none;stroke-opacity:1"
       d="M 100.14193,94.381885 H 89.921332"
       id="path16" /><path
       style="fill:none;stroke:#000000;stroke-width:0.0499999;stroke-dasharray:none;stroke-opacity:1"
       d="M 100.14193,100.69071 H 89.921332"
       id="path17" /><g
       id="g26"
       transform="matrix(0.08920183,0,0,0.08920183,85.14386,85.888524)"><path
         style="fill:#000000;fill-opacity:1;stroke:none;stroke-width:0.0499999;stroke-dasharray:none;stroke-opacity:1"
         d="m 110.31152,81.70401 -1.62455,0.06011 0.19681,0.263969 0.14828,0.120489 0.41313,0.09053 0.3235,-0.146378 z"
         id="path19" /><path
         style="fill:#000000;fill-opacity:1;stroke:none;stroke-width:0.0499999;stroke-dasharray:none;stroke-opacity:1"
         d="m 111.35691,81.707558 0.6075,0.421719 0.29225,0.119761 0.2829,-0.04508 0.37707,-0.331872 0.0703,-0.11298 z"
         id="path20" /><path
         style="fill:#000000;fill-opacity:1;stroke:none;stroke-width:0.0499999;stroke-dasharray:none;stroke-opacity:1"
         d="m 111.32992,81.549633 2.08413,-1.214612 0.0333,0.476163 -0.26064,0.492596 -0.36501,0.226385 -0.96306,0.05242 z"
         id="path21" /><path
         style="fill:#000000;fill-opacity:1;stroke:none;stroke-width:0.0499999;stroke-dasharray:none;stroke-opacity:1"
         d="m 111.19838,81.362102 1.03707,-0.535673 0.53713,-0.387749 0.3075,-0.50591 -0.0595,-0.418891 -0.3621,-0.515287 -0.5192,0.704178 z"
         id="path22" /><path
         style="fill:#000000;fill-opacity:1;stroke:none;stroke-width:0.0499999;stroke-dasharray:none;stroke-opacity:1"
         d="m 110.98028,81.249654 0.66585,-1.027496 0.34498,-0.793565 0.006,-0.621982 -0.27261,-0.345536 -0.49772,-0.160448 -0.1895,0.477755 -0.1164,0.857464 -0.005,0.75837 z"
         id="path23" /><path
         style="fill:#000000;fill-opacity:1;stroke:none;stroke-width:0.0499999;stroke-dasharray:none;stroke-opacity:1"
         d="m 110.69827,81.217446 0.0571,-0.892995 -0.0175,-0.850215 -0.1111,-0.7269 -0.1876,-0.44576 -0.31176,0.06799 -0.37472,0.287118 -0.119,0.550487 0.1365,0.48355 0.66066,1.212432 z"
         id="path24" /><path
         style="fill:#000000;fill-opacity:1;stroke:none;stroke-width:0.0499999;stroke-dasharray:none;stroke-opacity:1"
         d="m 110.47076,81.355323 -0.68983,-1.26679 -0.77203,-1.090576 -0.2264,0.271891 -0.1967,0.496599 0.0626,0.359183 0.11597,0.18161 z"
         id="path25" /><path
         style="fill:#000000;fill-opacity:1;stroke:none;stroke-width:0.0499999;stroke-dasharray:none;stroke-opacity:1"
         d="m 110.33778,81.579142 -2.04867,-1.224161 -0.0808,0.275154 0.1281,0.482237 0.34913,0.34539 0.30682,0.11099 z"
         id="path26" /></g><rect
       style="fill:#000000;fill-opacity:1;stroke:#000000;stroke-width:0.1;stroke-dasharray:none;stroke-opacity:1"
       id="battery_gauge_bg"
       width="1.3952103"
       height="13.458285"
       x="87.038467"
       y="94.356888" /><rect
       style="fill:url(#linearGradient34);fill-opacity:1;stroke:#000000;stroke-width:0.1;stroke-dasharray:none;stroke-opacity:1"
       id="battery_gauge"
       width="1.3952179"
       height="13.458282"
       x="87.038467"
       y="94.356888" /><text
       xml:space="preserve"
       style="font-size:1.05833px;text-align:center;writing-mode:lr-tb;direction:ltr;text-anchor:middle;fill:#000000;fill-opacity:1;stroke:#000000;stroke-width:0.0275533;stroke-dasharray:none;stroke-opacity:1"
       x="87.869354"
       y="93.50811"
       id="state_of_charge_percent"><tspan
         sodipodi:role="line"
         id="tspan34"
         style="font-size:1.05833px;stroke-width:0.0275533"
         x="87.869354"
         y="93.50811">- %</tspan></text><g
       id="g59-9-3"
       transform="translate(-10.07625,10.090045)"><rect
         style="fill:#979797;fill-opacity:1;stroke:none;stroke-width:0.178;stroke-linecap:round;stroke-dasharray:none;stroke-opacity:1"
         id="rect58-9-9"
         width="9.5297956"
         height="2.3288717"
         x="100.344"
         y="94.044678" /><path
         style="fill:none;fill-opacity:1;stroke:#868686;stroke-width:0.05;stroke-linecap:round;stroke-dasharray:none;stroke-opacity:1"
         d="m 102.67288,94.044669 v 2.328875"
         id="path59-2-0-1" /><path
         style="fill:none;fill-opacity:1;stroke:#6a6a6a;stroke-width:0.05;stroke-linecap:round;stroke-dasharray:none;stroke-opacity:1"
         d="m 100.34401,96.37355 h 9.52979"
         id="path58-4-81-9" /><path
         style="fill:none;fill-opacity:1;stroke:#8d8d8d;stroke-width:0.05;stroke-linecap:round;stroke-dasharray:none;stroke-opacity:1"
         d="m 100.34401,94.044674 v 2.328875"
         id="path59-3-6" /><path
         style="fill:none;fill-opacity:1;stroke:#8d8d8d;stroke-width:0.05;stroke-linecap:round;stroke-dasharray:none;stroke-opacity:1"
         d="M 109.8738,94.044675 V 96.37355"
         id="path59-9-1-9" /><path
         style="fill:none;fill-opacity:1;stroke:#d9d9d9;stroke-width:0.05;stroke-linecap:round;stroke-dasharray:none;stroke-opacity:1"
         d="m 100.34401,94.044676 h 9.52979"
         id="path58-1-3" /></g><g
       id="battery_temperature_low"
       transform="matrix(0.82908665,0,0,0.82908665,-5.6172923,31.533401)"
       style="display:none"><path
         id="path35-8-8"
         style="fill:none;fill-opacity:1;stroke:#000000;stroke-width:0.178;stroke-dasharray:none;stroke-opacity:1"
         d="m 116.87197,87.941679 c -0.12072,1.6e-5 -0.21858,0.09788 -0.21859,0.218594 v 3.38e-4 1.173807 c -0.0863,0.07084 -0.13671,0.179566 -0.13671,0.294718 0,0.206468 0.15908,0.373836 0.3553,0.373809 0.19622,3.3e-5 0.35531,-0.167337 0.35531,-0.373809 0,-0.107034 -0.0436,-0.208931 -0.11978,-0.279877 l -0.0169,-1.188997 v 0 c -10e-6,-0.120723 -0.0979,-0.218583 -0.2186,-0.218594 z"
         sodipodi:nodetypes="ssccscscccss" /><path
         id="path36-4-9"
         style="fill:#0088d4;fill-opacity:1;stroke:#0088d4;stroke-width:0.0337863;stroke-dasharray:none;stroke-opacity:1"
         d="m 116.87197,89.238025 c -0.0187,-4.7e-5 -0.0339,0.01514 -0.0339,0.03387 v 1.75e-4 0.198367 c -0.076,0.016 -0.13046,0.0831 -0.13042,0.160803 -3e-5,0.09075 0.0735,0.164318 0.16429,0.164295 0.0907,2.9e-5 0.16433,-0.07354 0.1643,-0.164295 4e-5,-0.0777 -0.0544,-0.1448 -0.13042,-0.160803 v -0.198193 -3.38e-4 c 3e-5,-0.01873 -0.0152,-0.03392 -0.0339,-0.03387 z"
         sodipodi:nodetypes="cscccccccccc" /><path
         id="path38-3-2-8"
         style="fill:#fbe500;fill-opacity:1;stroke:#000000;stroke-width:0.0868067;stroke-dasharray:none;stroke-opacity:1"
         d="m 117.75803,88.002393 c -0.0395,-1.5e-5 -0.0471,0.02718 -0.0714,0.07148 l -0.28085,0.48035 c -0.0236,0.03474 -0.0461,0.07934 -0.0461,0.104178 -2e-5,0.03949 0.032,0.07149 0.0715,0.07148 1.1e-4,0 2.3e-4,0 3.3e-4,0 h 0.65445 3.3e-4 c 0.0395,-8.2e-5 0.0713,-0.03206 0.0713,-0.07148 1e-5,-0.02493 -0.0177,-0.0526 -0.0331,-0.0827 l -0.29494,-0.50183 c -0.0233,-0.03608 -0.032,-0.07149 -0.0715,-0.07148 z"
         sodipodi:nodetypes="cccssccscccc" /><ellipse
         style="fill:#000000;fill-opacity:1;stroke:#000000;stroke-width:0.0336546;stroke-dasharray:none;stroke-opacity:1"
         id="path39-1-6-3"
         cx="117.75853"
         cy="88.560318"
         rx="0.030768162"
         ry="0.028637916" /><path
         id="path39-4-4-6-1"
         style="fill:#000000;fill-opacity:1;stroke:#000000;stroke-width:0.0336546;stroke-dasharray:none;stroke-opacity:1"
         d="m 117.75855,88.24309 a 0.03076816,0.02863792 0 0 0 -0.0308,0.0287 0.03076816,0.02863792 0 0 1 0,1.74e-4 v 0.155655 a 0.03076816,0.02863792 0 0 1 0,1.73e-4 0.03076816,0.02863792 0 0 0 0.0308,0.0287 0.03076816,0.02863792 0 0 0 0.0308,-0.0287 V 88.27179 a 0.03076816,0.02863792 0 0 0 -0.0308,-0.0287 z" /></g><g
       id="g59-8"
       transform="translate(-10.07727,3.8178427)"><rect
         style="fill:#979797;fill-opacity:1;stroke:none;stroke-width:0.178;stroke-linecap:round;stroke-dasharray:none;stroke-opacity:1"
         id="rect58-6"
         width="9.5297956"
         height="2.3288717"
         x="100.344"
         y="94.044678" /><path
         style="fill:none;fill-opacity:1;stroke:#868686;stroke-width:0.05;stroke-linecap:round;stroke-dasharray:none;stroke-opacity:1"
         d="m 102.67288,94.044669 v 2.328875"
         id="path59-2-2" /><path
         style="fill:none;fill-opacity:1;stroke:#6a6a6a;stroke-width:0.05;stroke-linecap:round;stroke-dasharray:none;stroke-opacity:1"
         d="m 100.34401,96.37355 h 9.52979"
         id="path58-4-8" /><path
         style="fill:none;fill-opacity:1;stroke:#8d8d8d;stroke-width:0.05;stroke-linecap:round;stroke-dasharray:none;stroke-opacity:1"
         d="m 100.34401,94.044674 v 2.328875"
         id="path59-4" /><path
         style="fill:none;fill-opacity:1;stroke:#8d8d8d;stroke-width:0.05;stroke-linecap:round;stroke-dasharray:none;stroke-opacity:1"
         d="M 109.8738,94.044675 V 96.37355"
         id="path59-9-7" /><path
         style="fill:none;fill-opacity:1;stroke:#d9d9d9;stroke-width:0.05;stroke-linecap:round;stroke-dasharray:none;stroke-opacity:1"
         d="m 100.34401,94.044676 h 9.52979"
         id="path58-2" /></g><g
       id="battery_round_trip_efficiency"
       transform="matrix(0.89003089,0,0,0.89003089,-3.9940467,23.273069)"><path
         style="fill:#000000;fill-opacity:1;stroke:none;stroke-width:0.2;stroke-dasharray:none;stroke-opacity:1"
         d="m 106.92093,85.788185 c -0.28154,-0.07428 -0.45286,-0.282741 -0.51396,-0.625386 -0.018,-0.310297 0.14616,-0.543919 0.4924,-0.700865 l 0.004,0.140172 0.29472,-0.269563 -0.30191,-0.247999 v 0.129392 c -0.39573,0.147895 -0.63414,0.41027 -0.71523,0.787126 -0.0408,0.305505 0.0384,0.558295 0.23721,0.758371 0.13897,0.125796 0.28753,0.213255 0.44567,0.262375 z"
         id="path40"
         sodipodi:nodetypes="ccccccccccc" /><path
         style="fill:#000000;fill-opacity:1;stroke:none;stroke-width:0.2;stroke-dasharray:none;stroke-opacity:1"
         d="m 107.44129,84.451812 c 0.28154,0.07428 0.45286,0.282741 0.51396,0.625386 0.018,0.310297 -0.14616,0.543919 -0.4924,0.700865 l -0.004,-0.140172 -0.29472,0.269563 0.30191,0.247999 v -0.129392 c 0.39573,-0.147895 0.63414,-0.41027 0.71523,-0.787126 0.0408,-0.305505 -0.0384,-0.558295 -0.23721,-0.758371 -0.13897,-0.125796 -0.28753,-0.213255 -0.44567,-0.262375 z"
         id="path40-1"
         sodipodi:nodetypes="ccccccccccc" /><ellipse
         style="fill:none;fill-opacity:1;stroke:#000000;stroke-width:0.0765542;stroke-dasharray:none;stroke-opacity:1"
         id="path41-2"
         cx="107.35899"
         cy="85.286407"
         rx="0.072791129"
         ry="0.1177785" /><ellipse
         style="fill:none;fill-opacity:1;stroke:#000000;stroke-width:0.0765542;stroke-dasharray:none;stroke-opacity:1"
         id="path41-2-1"
         cx="107.05024"
         cy="84.96624"
         rx="0.072791129"
         ry="0.1177785" /><path
         style="fill:#000000;fill-opacity:1;stroke:none;stroke-width:0.122951;stroke-dasharray:none;stroke-opacity:1"
         d="m 107.35898,84.818241 -0.41981,0.62422 h 0.10666 l 0.41434,-0.62422 z"
         id="path42" /></g><g
       id="g59-9"
       transform="translate(-10.077273,7.1633401)"><rect
         style="fill:#979797;fill-opacity:1;stroke:none;stroke-width:0.178;stroke-linecap:round;stroke-dasharray:none;stroke-opacity:1"
         id="rect58-9"
         width="9.5297956"
         height="2.3288717"
         x="100.344"
         y="94.044678" /><path
         style="fill:none;fill-opacity:1;stroke:#868686;stroke-width:0.05;stroke-linecap:round;stroke-dasharray:none;stroke-opacity:1"
         d="m 102.67288,94.044669 v 2.328875"
         id="path59-2-0" /><path
         style="fill:none;fill-opacity:1;stroke:#6a6a6a;stroke-width:0.05;stroke-linecap:round;stroke-dasharray:none;stroke-opacity:1"
         d="m 100.34401,96.37355 h 9.52979"
         id="path58-4-81" /><path
         style="fill:none;fill-opacity:1;stroke:#8d8d8d;stroke-width:0.05;stroke-linecap:round;stroke-dasharray:none;stroke-opacity:1"
         d="m 100.34401,94.044674 v 2.328875"
         id="path59-3" /><path
         style="fill:none;fill-opacity:1;stroke:#8d8d8d;stroke-width:0.05;stroke-linecap:round;stroke-dasharray:none;stroke-opacity:1"
         d="M 109.8738,94.044675 V 96.37355"
         id="path59-9-1" /><path
         style="fill:none;fill-opacity:1;stroke:#d9d9d9;stroke-width:0.05;stroke-linecap:round;stroke-dasharray:none;stroke-opacity:1"
         d="m 100.34401,94.044676 h 9.52979"
         id="path58-1" /></g><g
       id="battery_cycles"
       transform="matrix(0.85719825,0,0,0.85719825,3.4513892,25.294756)"><path
         style="fill:#000000;fill-opacity:1;stroke:#000000;stroke-width:0.105063;stroke-dasharray:none;stroke-opacity:1"
         d="m 102.65557,89.757473 0.12399,0.02701 -0.0374,0.128857 -0.0354,-0.05416 c -0.0873,0.05702 -0.13585,0.151019 -0.14566,0.28199 -9.7e-4,0.116155 0.0458,0.207663 0.14006,0.27452 0.0837,0.06673 0.18335,0.08416 0.29879,0.05229 0.11292,-0.03379 0.18886,-0.111606 0.22783,-0.233434 0.0331,-0.09898 0.015,-0.197953 -0.0541,-0.296929 l -0.0374,0.04482 V 89.84611 l 0.13632,0.02614 -0.0486,0.02988 c 0.0671,0.103743 0.0868,0.19076 0.0747,0.300665 v 0 c -0.0122,0.09999 -0.0595,0.185893 -0.14562,0.257712 -0.0941,0.06147 -0.18996,0.08948 -0.28759,0.08404 -0.12476,-0.01677 -0.22312,-0.07404 -0.29506,-0.171807 -0.0459,-0.0474 -0.0729,-0.161488 -0.0638,-0.288779 0.0126,-0.08702 0.0406,-0.130461 0.0768,-0.181826 0.0213,-0.03351 0.055,-0.06525 0.10094,-0.09524 z"
         id="path43"
         sodipodi:nodetypes="cccccccccccccccccccccc" /><path
         style="fill:none;fill-opacity:1;stroke:#000000;stroke-width:0.178;stroke-dasharray:none;stroke-opacity:1"
         d="m 102.75398,89.618446 v -0.307259 c -0.005,-0.06403 -0.0427,-0.101281 -0.11174,-0.111743 h -0.12179 v -0.1017 c -0.002,-0.04018 -0.0234,-0.06194 -0.0653,-0.06529 h -0.26367 c -0.0469,-0.0017 -0.0737,0.02511 -0.0803,0.08035 v 0.08538 h -0.13057 c -0.0544,0.0159 -0.0837,0.0452 -0.0879,0.08789 v 1.481543 c 0.005,0.05566 0.0394,0.08956 0.1017,0.1017 h 0.66167 c 0.0592,-0.0056 0.0933,-0.03976 0.10232,-0.102328 V 90.65964"
         id="path44"
         sodipodi:nodetypes="cccccccccccccccc" /><path
         style="fill:none;fill-opacity:1;stroke:#000000;stroke-width:0.133555;stroke-dasharray:none;stroke-opacity:1"
         d="m 102.42379,90.564 h -0.24959 c -0.0199,0.0023 -0.0299,0.01236 -0.0301,0.03007 v 0.06878 c 0.002,0.0171 0.01,0.0254 0.0249,0.02492 h 0.32146 c 0.0228,0.0024 0.0325,-0.0072 0.0289,-0.02893 v -0.02317 c -0.0352,-0.0173 -0.0671,-0.04119 -0.0957,-0.07166 z"
         id="path45"
         sodipodi:nodetypes="ccccccccc" /></g><g
       id="g59"
       transform="translate(-10.098398,0.88188512)"><rect
         style="fill:#979797;fill-opacity:1;stroke:none;stroke-width:0.178;stroke-linecap:round;stroke-dasharray:none;stroke-opacity:1"
         id="rect58"
         width="9.5297956"
         height="2.3288717"
         x="100.344"
         y="94.044678" /><path
         style="fill:none;fill-opacity:1;stroke:#868686;stroke-width:0.05;stroke-linecap:round;stroke-dasharray:none;stroke-opacity:1"
         d="m 102.67288,94.044669 v 2.328875"
         id="path59-2" /><path
         style="fill:none;fill-opacity:1;stroke:#6a6a6a;stroke-width:0.05;stroke-linecap:round;stroke-dasharray:none;stroke-opacity:1"
         d="m 100.34401,96.37355 h 9.52979"
         id="path58-4" /><path
         style="fill:none;fill-opacity:1;stroke:#8d8d8d;stroke-width:0.05;stroke-linecap:round;stroke-dasharray:none;stroke-opacity:1"
         d="m 100.34401,94.044674 v 2.328875"
         id="path59" /><path
         style="fill:none;fill-opacity:1;stroke:#8d8d8d;stroke-width:0.05;stroke-linecap:round;stroke-dasharray:none;stroke-opacity:1"
         d="M 109.8738,94.044675 V 96.37355"
         id="path59-9" /><path
         style="fill:none;fill-opacity:1;stroke:#d9d9d9;stroke-width:0.05;stroke-linecap:round;stroke-dasharray:none;stroke-opacity:1"
         d="m 100.34401,94.044676 h 9.52979"
         id="path58" /></g><g
       id="battery_loss_power"
       transform="matrix(0.66930579,0,0,0.66930579,22.619467,39.26952)"><path
         style="fill:none;fill-opacity:1;stroke:#000000;stroke-width:0.178074;stroke-dasharray:none;stroke-opacity:1"
         d="m 103.0795,84.404211 v -0.428063 c -0.005,-0.06403 -0.0427,-0.101281 -0.11174,-0.111744 h -0.12179 v -0.101699 c -0.002,-0.04018 -0.0234,-0.06194 -0.0653,-0.06529 H 102.517 c -0.0469,-0.0017 -0.0737,0.02511 -0.0803,0.08036 v 0.08538 h -0.13058 c -0.0544,0.0159 -0.0837,0.0452 -0.0879,0.08789 v 0.45819 m 0,0.683596 v 0.339758 c 0.005,0.05566 0.0394,0.08956 0.1017,0.101699 h 0.66167 c 0.0592,-0.0056 0.0933,-0.03976 0.10233,-0.102327 v -0.347398"
         id="path44-4"
         sodipodi:nodetypes="cccccccccccccccccc" /><path
         style="fill:#000000;fill-opacity:1;stroke:#000000;stroke-width:0.0724915;stroke-dasharray:none;stroke-opacity:1"
         d="m 102.20378,85.798234 c -0.23286,-0.02126 -0.39618,-0.163442 -0.49027,-0.426541 -0.0104,-0.243238 0,-0.375113 0.36291,-0.562407 l 0.0513,0.10015 0.11496,-0.29925 -0.30578,-0.06989 0.0464,0.09293 c -0.35701,0.17605 -0.45848,0.331779 -0.4724,0.640933 0.008,0.247286 0.10483,0.436856 0.28884,0.568741 0.12672,0.08108 0.25605,0.130481 0.3878,0.148262 z"
         id="path40-4"
         sodipodi:nodetypes="ccccccccccc" /><path
         style="fill:#000000;fill-opacity:1;stroke:#000000;stroke-width:0.0724915;stroke-dasharray:none;stroke-opacity:1"
         d="m 103.1102,84.808103 c 0.23286,0.02126 0.39618,0.163442 0.49027,0.426541 0.0104,0.243238 0,0.375113 -0.36291,0.562407 l -0.0513,-0.10015 -0.11496,0.29925 0.30578,0.06989 -0.0464,-0.09293 c 0.35701,-0.17605 0.45848,-0.331779 0.4724,-0.640933 -0.008,-0.247286 -0.10483,-0.436856 -0.28884,-0.568741 -0.12672,-0.08108 -0.25605,-0.130481 -0.3878,-0.148262 z"
         id="path40-4-6"
         sodipodi:nodetypes="ccccccccccc" /><path
         style="fill:none;fill-opacity:1;stroke:#000000;stroke-width:0.0852634;stroke-linecap:round;stroke-dasharray:none;stroke-opacity:1"
         d="m 102.82997,84.393637 c -0.0335,0.03949 -0.0516,0.08255 -0.0544,0.129152 -1e-5,0.04273 0.008,0.08308 0.0249,0.121056 0.0534,0.04926 0.0851,0.13975 0.0935,0.198507 -0.004,0.07152 -0.0278,0.128777 -0.0721,0.171804"
         id="path57"
         sodipodi:nodetypes="ccccc" /><path
         style="fill:none;fill-opacity:1;stroke:#000000;stroke-width:0.0852634;stroke-linecap:round;stroke-dasharray:none;stroke-opacity:1"
         d="m 102.65614,84.390971 c -0.0335,0.03949 -0.0516,0.08255 -0.0544,0.129152 -1e-5,0.04273 0.008,0.08308 0.0249,0.121056 0.0534,0.04926 0.0851,0.13975 0.0935,0.198507 -0.004,0.07152 -0.0278,0.128777 -0.0721,0.171804"
         id="path57-2"
         sodipodi:nodetypes="ccccc" /><path
         style="fill:none;fill-opacity:1;stroke:#000000;stroke-width:0.0852634;stroke-linecap:round;stroke-dasharray:none;stroke-opacity:1"
         d="m 102.47424,84.390971 c -0.0335,0.03949 -0.0516,0.08255 -0.0544,0.129152 -10e-6,0.04273 0.008,0.08308 0.0249,0.121056 0.0534,0.04926 0.0851,0.13975 0.0935,0.198507 -0.004,0.07152 -0.0278,0.128777 -0.0721,0.171804"
         id="path57-7"
         sodipodi:nodetypes="ccccc" /></g><text
       xml:space="preserve"
       style="font-size:1.41111px;text-align:center;writing-mode:lr-tb;direction:ltr;text-anchor:middle;fill:#000000;fill-opacity:1;stroke:none;stroke-width:0.0502485;stroke-linecap:round;stroke-dasharray:none;stroke-opacity:1"
       x="95.972015"
       y="105.82246"
       id="battery_temperature_celsius"><tspan
         sodipodi:role="line"
         id="tspan58"
         style="font-size:1.41111px;fill:#000000;fill-opacity:1;stroke:none;stroke-width:0.0502485"
         x="95.972015"
         y="105.82246">-</tspan></text><text
       xml:space="preserve"
       style="font-size:1.41111px;text-align:center;writing-mode:lr-tb;direction:ltr;text-anchor:middle;fill:#000000;fill-opacity:1;stroke:none;stroke-width:0.0502485;stroke-linecap:round;stroke-dasharray:none;stroke-opacity:1"
       x="95.972015"
       y="99.478508"
       id="battery_efficiency_ratio"><tspan
         sodipodi:role="line"
         id="tspan58-8"
         style="font-size:1.41111px;fill:#000000;fill-opacity:1;stroke:none;stroke-width:0.0502485"
         x="95.972015"
         y="99.478508">-</tspan></text><text
       xml:space="preserve"
       style="font-size:1.41111px;text-align:center;writing-mode:lr-tb;direction:ltr;text-anchor:middle;fill:#000000;fill-opacity:1;stroke:none;stroke-width:0.0502485;stroke-linecap:round;stroke-dasharray:none;stroke-opacity:1"
       x="95.972015"
       y="96.617058"
       id="battery_loss_kw"><tspan
         sodipodi:role="line"
         id="tspan58-8-6"
         style="font-size:1.41111px;fill:#000000;fill-opacity:1;stroke:none;stroke-width:0.0502485"
         x="95.972015"
         y="96.617058">-</tspan></text><text
       xml:space="preserve"
       style="font-size:1.41111px;text-align:center;writing-mode:lr-tb;direction:ltr;text-anchor:middle;fill:#000000;fill-opacity:1;stroke:none;stroke-width:0.0502485;stroke-linecap:round;stroke-dasharray:none;stroke-opacity:1"
       x="95.972015"
       y="102.97116"
       id="battery_cycle_count"><tspan
         sodipodi:role="line"
         id="tspan58-3"
         style="font-size:1.41111px;fill:#000000;fill-opacity:1;stroke:none;stroke-width:0.0502485"
         x="95.972015"
         y="102.97116">-</tspan></text><text
       xml:space="preserve"
       style="font-size:1.05833px;text-align:start;writing-mode:lr-tb;direction:ltr;text-anchor:start;fill:#000000;fill-opacity:1;stroke:none;stroke-width:0.0502485;stroke-linecap:round;stroke-dasharray:none;stroke-opacity:1"
       x="101.3565"
       y="92.521324"
       id="battery_state"><tspan
         sodipodi:role="line"
         id="tspan58-8-6-9"
         style="font-style:normal;font-variant:normal;font-weight:bold;font-stretch:normal;font-size:1.05833px;font-family:sans-serif;-inkscape-font-specification:'sans-serif Bold';fill:#000000;fill-opacity:1;stroke:none;stroke-width:0.0502485"
         x="101.3565"
         y="92.521324">-</tspan></text><text
       xml:space="preserve"
       style="font-size:1.05833px;text-align:center;writing-mode:lr-tb;direction:ltr;text-anchor:middle;fill:#ffffff;fill-opacity:1;stroke:none;stroke-width:0.0502485;stroke-linecap:round;stroke-dasharray:none;stroke-opacity:1"
       x="104.17397"
       y="96.491714"
       id="battery_power_kw"><tspan
         sodipodi:role="line"
         id="tspan58-8-6-9-2"
         style="font-size:1.05833px;fill:#ffffff;fill-opacity:1;stroke:none;stroke-width:0.0502485"
         x="104.17397"
         y="96.491714">10 kW</tspan></text><g
       id="battery_charging"
       style="display:none"><text
         xml:space="preserve"
         style="font-size:0.881944px;text-align:start;writing-mode:lr-tb;direction:ltr;text-anchor:start;fill:#000000;fill-opacity:1;stroke:none;stroke-width:0.0502485;stroke-linecap:round;stroke-dasharray:none;stroke-opacity:1"
         x="101.49516"
         y="93.666908"
         id="time_to_90_percent"><tspan
           sodipodi:role="line"
           id="tspan58-8-6-9-9"
           style="font-size:0.881944px;fill:#000000;fill-opacity:1;stroke:none;stroke-width:0.0502485"
           x="101.49516"
           y="93.666908">24 t 55 min</tspan></text><path
         id="battery_charging_arrow"
         style="baseline-shift:baseline;display:inline;overflow:visible;vector-effect:none;fill:#22cc00;fill-opacity:1;enable-background:accumulate;stop-color:#000000"
         d="m 103.17808,94.45499 v 0.761711 h 4.59559 v 1.800923 h -4.59559 v 0.761711 l -2.87734,-1.661914 z" /><g
         id="g41"
         transform="translate(-1.1508275,11.430926)"><path
           style="fill:none;fill-opacity:1;stroke:#000000;stroke-width:0.183438;stroke-linecap:butt;stroke-dasharray:none;stroke-opacity:1"
           d="m 102.27894,87.393214 h 1.1961 c 0.0469,0.004 0.078,0.03513 0.0933,0.0933 l 0.16028,0.849235 c 0.0135,0.06122 -0.0136,0.09311 -0.0813,0.09569 h -1.55015 c -0.059,-0.01116 -0.0861,-0.04465 -0.0813,-0.100472 l 0.18181,-0.865981 c 0.006,-0.04147 0.0335,-0.06539 0.0813,-0.07177 z"
           id="path9"
           sodipodi:nodetypes="ccccccccc" /><path
           style="fill:none;fill-opacity:1;stroke:#000000;stroke-width:0.183438;stroke-linecap:butt;stroke-dasharray:none;stroke-opacity:1"
           d="m 102.53865,87.393214 -0.11502,1.06115"
           id="path10" /><path
           style="fill:none;fill-opacity:1;stroke:#000000;stroke-width:0.183438;stroke-linecap:butt;stroke-dasharray:none;stroke-opacity:1"
           d="m 102.87699,87.393214 -0.005,1.03822"
           id="path15" /><path
           style="fill:none;fill-opacity:1;stroke:#000000;stroke-width:0.183438;stroke-linecap:butt;stroke-dasharray:none;stroke-opacity:1"
           d="m 103.20512,87.393109 0.12179,1.038431"
           id="path18" /><path
           style="fill:none;fill-opacity:1;stroke:#000000;stroke-width:0.183438;stroke-linecap:butt;stroke-dasharray:none;stroke-opacity:1"
           d="m 102.1067,87.897971 h 1.53929"
           id="path29" /><circle
           style="fill:none;fill-opacity:1;stroke:#000000;stroke-width:0.091719;stroke-linecap:butt;stroke-dasharray:none;stroke-opacity:1"
           id="path30"
           cx="103.36022"
           cy="86.9375"
           r="0.15190548" /><path
           style="fill:none;fill-opacity:1;stroke:#000000;stroke-width:0.091719;stroke-linecap:butt;stroke-dasharray:none;stroke-opacity:1"
           d="m 103.36022,86.62512 v 0.07781"
           id="path31" /><path
           style="fill:none;fill-opacity:1;stroke:#000000;stroke-width:0.091719;stroke-linecap:butt;stroke-dasharray:none;stroke-opacity:1"
           d="m 103.53505,86.762662 0.0442,-0.0442"
           id="path32" /><path
           style="fill:none;fill-opacity:1;stroke:#000000;stroke-width:0.091719;stroke-linecap:butt;stroke-dasharray:none;stroke-opacity:1"
           d="m 103.59547,86.937498 h 0.0884"
           id="path33" /><path
           style="fill:none;fill-opacity:1;stroke:#000000;stroke-width:0.091719;stroke-linecap:butt;stroke-dasharray:none;stroke-opacity:1"
           d="m 103.51884,87.112333 0.063,0.06302"
           id="path34" /><path
           style="fill:none;fill-opacity:1;stroke:#000000;stroke-width:0.091719;stroke-linecap:butt;stroke-dasharray:none;stroke-opacity:1"
           d="M 103.36022,87.18164 V 87.2696"
           id="path37" /><path
           style="fill:none;fill-opacity:1;stroke:#000000;stroke-width:0.091719;stroke-linecap:butt;stroke-dasharray:none;stroke-opacity:1"
           d="m 103.18539,87.112333 -0.0536,0.05354"
           id="path38" /><path
           style="fill:none;fill-opacity:1;stroke:#000000;stroke-width:0.091719;stroke-linecap:butt;stroke-dasharray:none;stroke-opacity:1"
           d="m 103.11563,86.937498 h -0.0847"
           id="path39" /><path
           style="fill:none;fill-opacity:1;stroke:#000000;stroke-width:0.091719;stroke-linecap:butt;stroke-dasharray:none;stroke-opacity:1"
           d="m 103.18539,86.762662 -0.0623,-0.06229"
           id="path41" /></g><g
         id="g71"
         transform="translate(-2.6925349,14.92196)"><path
           style="fill:none;fill-opacity:1;stroke:#000000;stroke-width:0.119049;stroke-linecap:round;stroke-linejoin:round;stroke-dasharray:none;stroke-opacity:1"
           d="m 103.8683,87.659636 h 1.13878"
           id="path46" /><path
           style="fill:none;fill-opacity:1;stroke:#000000;stroke-width:0.119049;stroke-linecap:round;stroke-linejoin:round;stroke-dasharray:none;stroke-opacity:1"
           d="m 104.81094,87.659636 -0.19028,-0.708444 -0.10246,-0.819686 -0.0966,-0.201995 -0.10246,0.219559 -0.079,0.816759 -0.16979,0.693807"
           id="path47" /><path
           style="fill:none;fill-opacity:1;stroke:#000000;stroke-width:0.119049;stroke-linecap:round;stroke-linejoin:round;stroke-dasharray:none;stroke-opacity:1"
           d="m 104.70107,87.250561 -0.63078,0.409075"
           id="path48" /><path
           style="fill:none;fill-opacity:1;stroke:#000000;stroke-width:0.119049;stroke-linecap:round;stroke-linejoin:round;stroke-dasharray:none;stroke-opacity:1"
           d="M 104.81094,87.659636 104.1704,87.250561"
           id="path49"
           sodipodi:nodetypes="cc" /><path
           style="fill:none;fill-opacity:1;stroke:#000000;stroke-width:0.119049;stroke-linecap:round;stroke-linejoin:round;stroke-dasharray:none;stroke-opacity:1"
           d="M 104.70107,87.250561 H 104.1704"
           id="path50" /><path
           style="fill:none;fill-opacity:1;stroke:#000000;stroke-width:0.119049;stroke-linecap:round;stroke-linejoin:round;stroke-dasharray:none;stroke-opacity:1"
           d="m 104.53901,86.297965 h -0.23429"
           id="path53" /><path
           style="fill:none;fill-opacity:1;stroke:#000000;stroke-width:0.119049;stroke-linecap:round;stroke-linejoin:round;stroke-dasharray:none;stroke-opacity:1"
           d="m 104.5182,86.131506 h -0.19087"
           id="path54" /><path
           id="path66"
           style="fill:none;fill-opacity:1;stroke:#000000;stroke-width:0.119049;stroke-linecap:round;stroke-linejoin:round;stroke-dasharray:none;stroke-opacity:1"
           d="m 104.27235,86.728842 -0.42613,0.177998 h 0.41752 0.32811 0.39455 l -0.41711,-0.177998 z"
           sodipodi:nodetypes="ccccccc" /><path
           style="fill:none;fill-opacity:1;stroke:#000000;stroke-width:0.119049;stroke-linecap:round;stroke-linejoin:round;stroke-dasharray:none;stroke-opacity:1"
           d="m 104.30472,86.297965 h -0.35152 l 0.37413,-0.166459"
           id="path68" /><path
           style="fill:none;fill-opacity:1;stroke:#000000;stroke-width:0.119049;stroke-linecap:round;stroke-linejoin:round;stroke-dasharray:none;stroke-opacity:1"
           d="m 104.53901,86.297965 h 0.36854 l -0.38935,-0.166459"
           id="path69" /><path
           style="fill:none;fill-opacity:1;stroke:#000000;stroke-width:0.05;stroke-linecap:round;stroke-linejoin:round;stroke-dasharray:none;stroke-opacity:1"
           d="m 104.90755,86.297965 0.31803,0.252624"
           id="path71" /><path
           style="fill:none;fill-opacity:1;stroke:#000000;stroke-width:0.05;stroke-linecap:round;stroke-linejoin:round;stroke-dasharray:none;stroke-opacity:1"
           d="m 104.93303,86.887 0.31803,0.252624"
           id="path71-5" /><path
           style="fill:none;fill-opacity:1;stroke:#000000;stroke-width:0.05;stroke-linecap:round;stroke-linejoin:round;stroke-dasharray:none;stroke-opacity:1"
           d="m 103.93009,86.322965 -0.31803,0.252624"
           id="path71-2" /><path
           style="fill:none;fill-opacity:1;stroke:#000000;stroke-width:0.05;stroke-linecap:round;stroke-linejoin:round;stroke-dasharray:none;stroke-opacity:1"
           d="m 103.90461,86.912 -0.31803,0.252624"
           id="path71-5-8" /></g><text
         xml:space="preserve"
         style="font-size:1.05833px;text-align:center;writing-mode:lr-tb;direction:ltr;text-anchor:middle;fill:#000000;fill-opacity:1;stroke:none;stroke-width:0.0502485;stroke-linecap:round;stroke-dasharray:none;stroke-opacity:1"
         x="105.10343"
         y="99.631729"
         id="solar_to_battery_kw"><tspan
           sodipodi:role="line"
           id="tspan58-8-6-9-2-9"
           style="font-size:1.05833px;fill:#000000;fill-opacity:1;stroke:none;stroke-width:0.0502485"
           x="105.10343"
           y="99.631729">10 kW</tspan></text><text
         xml:space="preserve"
         style="font-size:1.05833px;text-align:center;writing-mode:lr-tb;direction:ltr;text-anchor:middle;fill:#000000;fill-opacity:1;stroke:none;stroke-width:0.0502485;stroke-linecap:round;stroke-dasharray:none;stroke-opacity:1"
         x="105.10343"
         y="101.99901"
         id="grid_to_battery_kw"><tspan
           sodipodi:role="line"
           id="tspan58-8-6-9-2-9-4"
           style="font-size:1.05833px;fill:#000000;fill-opacity:1;stroke:none;stroke-width:0.0502485"
           x="105.10343"
           y="101.99901">10 kW</tspan></text></g><g
       id="battery_discharging"
       transform="translate(-10.583333)"
       style="display:none"><text
         xml:space="preserve"
         style="font-size:0.881944px;text-align:start;writing-mode:lr-tb;direction:ltr;text-anchor:start;fill:#000000;fill-opacity:1;stroke:none;stroke-width:0.0502485;stroke-linecap:round;stroke-dasharray:none;stroke-opacity:1"
         x="112.07849"
         y="93.666908"
         id="time_to_15_percent"><tspan
           sodipodi:role="line"
           id="tspan58-8-6-9-9-6"
           style="font-size:0.881944px;fill:#000000;fill-opacity:1;stroke:none;stroke-width:0.0502485"
           x="112.07849"
           y="93.666908">24 t 55 min</tspan></text><g
         id="g79"
         transform="translate(9.9386375,10.953426)"><path
           style="fill:#22cc00;fill-opacity:1;stroke:#000000;stroke-width:0.1;stroke-linecap:round;stroke-linejoin:round;stroke-dasharray:none;stroke-opacity:1"
           d="m 101.58228,88.942764 h 1.57013"
           id="path72" /><path
           style="fill:none;fill-opacity:1;stroke:#000000;stroke-width:0.1;stroke-linecap:round;stroke-linejoin:round;stroke-dasharray:none;stroke-opacity:1"
           d="m 101.74871,88.942764 v -1.055226 l -0.14385,0.110657 -0.0664,-0.114345 0.82888,-0.608611 0.83097,0.619677 -0.0664,0.103279 -0.15123,-0.110657 v 1.055226"
           id="path73" /><path
           style="fill:none;fill-opacity:1;stroke:#000000;stroke-width:0.1;stroke-linecap:round;stroke-linejoin:round;stroke-dasharray:none;stroke-opacity:1"
           d="m 101.74871,87.887538 0.61967,-0.464757 0.6123,0.464757"
           id="path74" /><path
           style="fill:none;fill-opacity:1;stroke:#000000;stroke-width:0.1;stroke-linecap:round;stroke-linejoin:round;stroke-dasharray:none;stroke-opacity:1"
           d="m 102.28649,88.942764 v -0.55033 h -0.34689 v 0.55033"
           id="path75" /><rect
           style="fill:none;fill-opacity:1;stroke:#000000;stroke-width:0.1;stroke-linecap:round;stroke-linejoin:round;stroke-dasharray:none;stroke-opacity:1"
           id="rect75"
           width="0.32863298"
           height="0.3260248"
           x="102.20042"
           y="87.797768" /><rect
           style="fill:none;fill-opacity:1;stroke:#000000;stroke-width:0.1;stroke-linecap:round;stroke-linejoin:round;stroke-dasharray:none;stroke-opacity:1"
           id="rect76"
           width="0.3260248"
           height="0.3182002"
           x="102.47167"
           y="88.389824" /><path
           style="fill:none;fill-opacity:1;stroke:#000000;stroke-width:0.1;stroke-linecap:round;stroke-linejoin:round;stroke-dasharray:none;stroke-opacity:1"
           d="m 102.17542,88.632389 v 0.07564"
           id="path76" /><path
           style="fill:none;fill-opacity:1;stroke:#000000;stroke-width:0.1;stroke-linecap:round;stroke-linejoin:round;stroke-dasharray:none;stroke-opacity:1"
           d="m 102.63469,88.389824 v 0.318199"
           id="path77" /><path
           style="fill:none;fill-opacity:1;stroke:#000000;stroke-width:0.1;stroke-linecap:round;stroke-linejoin:round;stroke-dasharray:none;stroke-opacity:1"
           d="m 102.36473,87.797768 v 0.326027"
           id="path78" /><path
           style="fill:none;fill-opacity:1;stroke:#000000;stroke-width:0.1;stroke-linecap:round;stroke-linejoin:round;stroke-dasharray:none;stroke-opacity:1"
           d="M 102.70185,87.524691 V 87.36192 h 0.18109 v 0.297817"
           id="path79" /></g><g
         id="g71-1"
         transform="translate(7.8907985,14.92196)"><path
           style="fill:none;fill-opacity:1;stroke:#000000;stroke-width:0.119049;stroke-linecap:round;stroke-linejoin:round;stroke-dasharray:none;stroke-opacity:1"
           d="m 103.8683,87.659636 h 1.13878"
           id="path46-2" /><path
           style="fill:none;fill-opacity:1;stroke:#000000;stroke-width:0.119049;stroke-linecap:round;stroke-linejoin:round;stroke-dasharray:none;stroke-opacity:1"
           d="m 104.81094,87.659636 -0.19028,-0.708444 -0.10246,-0.819686 -0.0966,-0.201995 -0.10246,0.219559 -0.079,0.816759 -0.16979,0.693807"
           id="path47-8" /><path
           style="fill:none;fill-opacity:1;stroke:#000000;stroke-width:0.119049;stroke-linecap:round;stroke-linejoin:round;stroke-dasharray:none;stroke-opacity:1"
           d="m 104.70107,87.250561 -0.63078,0.409075"
           id="path48-8" /><path
           style="fill:none;fill-opacity:1;stroke:#000000;stroke-width:0.119049;stroke-linecap:round;stroke-linejoin:round;stroke-dasharray:none;stroke-opacity:1"
           d="M 104.81094,87.659636 104.1704,87.250561"
           id="path49-9"
           sodipodi:nodetypes="cc" /><path
           style="fill:none;fill-opacity:1;stroke:#000000;stroke-width:0.119049;stroke-linecap:round;stroke-linejoin:round;stroke-dasharray:none;stroke-opacity:1"
           d="M 104.70107,87.250561 H 104.1704"
           id="path50-2" /><path
           style="fill:none;fill-opacity:1;stroke:#000000;stroke-width:0.119049;stroke-linecap:round;stroke-linejoin:round;stroke-dasharray:none;stroke-opacity:1"
           d="m 104.53901,86.297965 h -0.23429"
           id="path53-8" /><path
           style="fill:none;fill-opacity:1;stroke:#000000;stroke-width:0.119049;stroke-linecap:round;stroke-linejoin:round;stroke-dasharray:none;stroke-opacity:1"
           d="m 104.5182,86.131506 h -0.19087"
           id="path54-8" /><path
           id="path66-8"
           style="fill:none;fill-opacity:1;stroke:#000000;stroke-width:0.119049;stroke-linecap:round;stroke-linejoin:round;stroke-dasharray:none;stroke-opacity:1"
           d="m 104.27235,86.728842 -0.42613,0.177998 h 0.41752 0.32811 0.39455 l -0.41711,-0.177998 z"
           sodipodi:nodetypes="ccccccc" /><path
           style="fill:none;fill-opacity:1;stroke:#000000;stroke-width:0.119049;stroke-linecap:round;stroke-linejoin:round;stroke-dasharray:none;stroke-opacity:1"
           d="m 104.30472,86.297965 h -0.35152 l 0.37413,-0.166459"
           id="path68-6" /><path
           style="fill:none;fill-opacity:1;stroke:#000000;stroke-width:0.119049;stroke-linecap:round;stroke-linejoin:round;stroke-dasharray:none;stroke-opacity:1"
           d="m 104.53901,86.297965 h 0.36854 l -0.38935,-0.166459"
           id="path69-8" /><path
           style="fill:none;fill-opacity:1;stroke:#000000;stroke-width:0.05;stroke-linecap:round;stroke-linejoin:round;stroke-dasharray:none;stroke-opacity:1"
           d="m 104.90755,86.297965 0.31803,0.252624"
           id="path71-3" /><path
           style="fill:none;fill-opacity:1;stroke:#000000;stroke-width:0.05;stroke-linecap:round;stroke-linejoin:round;stroke-dasharray:none;stroke-opacity:1"
           d="m 104.93303,86.887 0.31803,0.252624"
           id="path71-5-83" /><path
           style="fill:none;fill-opacity:1;stroke:#000000;stroke-width:0.05;stroke-linecap:round;stroke-linejoin:round;stroke-dasharray:none;stroke-opacity:1"
           d="m 103.93009,86.322965 -0.31803,0.252624"
           id="path71-2-3" /><path
           style="fill:none;fill-opacity:1;stroke:#000000;stroke-width:0.05;stroke-linecap:round;stroke-linejoin:round;stroke-dasharray:none;stroke-opacity:1"
           d="m 103.90461,86.912 -0.31803,0.252624"
           id="path71-5-8-3" /></g><path
         id="battery_discharging_arrow"
         style="baseline-shift:baseline;display:inline;overflow:visible;vector-effect:none;fill:#cc0000;fill-opacity:1;enable-background:accumulate;stop-color:#000000"
         d="m 115.47967,94.45499 v 0.76171 h -4.59559 v 1.80092 h 4.59559 v 0.76172 l 2.87734,-1.66192 z" /><text
         xml:space="preserve"
         style="font-size:1.05833px;text-align:center;writing-mode:lr-tb;direction:ltr;text-anchor:middle;fill:#000000;fill-opacity:1;stroke:none;stroke-width:0.0502485;stroke-linecap:round;stroke-dasharray:none;stroke-opacity:1"
         x="115.68677"
         y="99.631729"
         id="battery_to_house_kw"><tspan
           sodipodi:role="line"
           id="tspan58-8-6-9-2-9-7"
           style="font-size:1.05833px;fill:#000000;fill-opacity:1;stroke:none;stroke-width:0.0502485"
           x="115.68677"
           y="99.631729">10 kW</tspan></text><text
         xml:space="preserve"
         style="font-size:1.05833px;text-align:center;writing-mode:lr-tb;direction:ltr;text-anchor:middle;fill:#000000;fill-opacity:1;stroke:none;stroke-width:0.0502485;stroke-linecap:round;stroke-dasharray:none;stroke-opacity:1"
         x="115.68677"
         y="101.99901"
         id="battery_to_grid_kw"><tspan
           sodipodi:role="line"
           id="tspan58-8-6-9-2-9-4-0"
           style="font-size:1.05833px;fill:#000000;fill-opacity:1;stroke:none;stroke-width:0.0502485"
           x="115.68677"
           y="101.99901">10 kW</tspan></text></g><g
       id="battery_temperature_high"
       transform="matrix(0.82908665,0,0,0.82908665,6.575513,28.023673)"
       style="display:none"><path
         id="path38-3-2"
         style="fill:#fbe500;fill-opacity:1;stroke:#000000;stroke-width:0.0868067;stroke-dasharray:none;stroke-opacity:1"
         d="m 103.05172,92.235639 c -0.0395,-1.5e-5 -0.0471,0.02718 -0.0714,0.07148 l -0.28085,0.48035 c -0.0236,0.03474 -0.0461,0.07934 -0.0461,0.104178 -2e-5,0.03949 0.032,0.07149 0.0715,0.07148 1.1e-4,0 2.3e-4,0 3.3e-4,0 h 0.65445 3.3e-4 c 0.0395,-8.2e-5 0.0713,-0.03206 0.0713,-0.07148 1e-5,-0.02493 -0.0177,-0.0526 -0.0331,-0.0827 l -0.29494,-0.50183 c -0.0233,-0.03608 -0.032,-0.07149 -0.0715,-0.07148 z"
         sodipodi:nodetypes="cccssccscccc" /><ellipse
         style="fill:#000000;fill-opacity:1;stroke:#000000;stroke-width:0.0336546;stroke-dasharray:none;stroke-opacity:1"
         id="path39-1-6"
         cx="103.05223"
         cy="92.793564"
         rx="0.030768162"
         ry="0.028637916" /><path
         id="path39-4-4-6"
         style="fill:#000000;fill-opacity:1;stroke:#000000;stroke-width:0.0336546;stroke-dasharray:none;stroke-opacity:1"
         d="m 103.05224,92.476336 a 0.03076816,0.02863792 0 0 0 -0.0308,0.0287 0.03076816,0.02863792 0 0 1 0,1.74e-4 v 0.155655 a 0.03076816,0.02863792 0 0 1 0,1.73e-4 0.03076816,0.02863792 0 0 0 0.0308,0.0287 0.03076816,0.02863792 0 0 0 0.0308,-0.0287 v -0.156002 a 0.03076816,0.02863792 0 0 0 -0.0308,-0.0287 z" /><path
         id="path35-8"
         style="fill:none;fill-opacity:1;stroke:#000000;stroke-width:0.178;stroke-dasharray:none;stroke-opacity:1"
         d="m 102.16566,92.174925 c -0.12072,1.6e-5 -0.21858,0.09788 -0.21859,0.218594 v 3.38e-4 1.173807 c -0.0863,0.07084 -0.13671,0.179566 -0.13671,0.294718 0,0.206468 0.15908,0.373836 0.3553,0.373809 0.19622,3.3e-5 0.35531,-0.167337 0.35531,-0.373809 0,-0.107034 -0.0436,-0.208931 -0.11978,-0.279877 l -0.0169,-1.188997 v 0 c -10e-6,-0.120723 -0.0979,-0.218583 -0.2186,-0.218594 z"
         sodipodi:nodetypes="ssccscscccss" /><path
         id="path36-4"
         style="fill:#d40000;fill-opacity:1;stroke:#d40000;stroke-width:0.0337863;stroke-dasharray:none;stroke-opacity:1"
         d="m 102.16566,92.365407 c -0.0187,-4.7e-5 -0.0339,0.01514 -0.0339,0.03387 v 1.75e-4 1.304231 c -0.076,0.016 -0.13046,0.0831 -0.13042,0.160803 -3e-5,0.09075 0.0735,0.164318 0.16429,0.164295 0.0907,2.9e-5 0.16433,-0.07354 0.1643,-0.164295 4e-5,-0.0777 -0.0544,-0.1448 -0.13042,-0.160803 v -1.304057 -3.38e-4 c 3e-5,-0.01873 -0.0152,-0.03392 -0.0339,-0.03387 z"
         sodipodi:nodetypes="cscccccccccc" /></g><g
       id="battery_temperature_nominal"
       transform="matrix(0.82908665,0,0,0.82908665,2.5953748,31.341531)"><path
         id="path35"
         style="fill:none;fill-opacity:1;stroke:#000000;stroke-width:0.178;stroke-dasharray:none;stroke-opacity:1"
         d="m 106.96629,88.173102 c -0.12072,1.6e-5 -0.21858,0.09788 -0.21859,0.218594 v 3.38e-4 1.173807 c -0.0863,0.07084 -0.13671,0.179566 -0.13671,0.294718 0,0.206468 0.15908,0.373836 0.3553,0.373809 0.19622,3.3e-5 0.35531,-0.167337 0.35531,-0.373809 0,-0.107034 -0.0436,-0.208931 -0.11978,-0.279877 l -0.0169,-1.188997 v 0 c -1e-5,-0.120723 -0.0979,-0.218583 -0.2186,-0.218594 z"
         sodipodi:nodetypes="ssccscscccss" /><path
         id="path36"
         style="fill:#000000;fill-opacity:1;stroke:#000000;stroke-width:0.0337863;stroke-dasharray:none;stroke-opacity:1"
         d="m 106.96629,88.993003 a 0.03381568,0.03381568 0 0 0 -0.0339,0.03387 0.03381568,0.03381568 0 0 1 0,1.75e-4 v 0.674812 a 0.16424757,0.16424757 0 0 0 -0.13042,0.160803 0.16424757,0.16424757 0 0 0 0.16429,0.164295 0.16424757,0.16424757 0 0 0 0.1643,-0.164295 0.16424757,0.16424757 0 0 0 -0.13042,-0.160803 v -0.674638 a 0.03381568,0.03381568 0 0 0 0,-3.38e-4 0.03381568,0.03381568 0 0 0 -0.0339,-0.03387 z" /></g></g></svg>
